<?xml version="1.0" encoding="utf-8" ?>
<svg xmlns="http://www.w3.org/2000/svg" xmlns:xlink="http://www.w3.org/1999/xlink" width="1820" height="1024">
	<path fill="#21A1A8" d="M0 0L1818.44 0C1819.26 1.28466 1819.72 2.43117 1819.84 3.94867C1821.13 20.7265 1819.99 38.3058 1820 55.1911L1820.01 159.984L1820.03 572.099L1820.02 673.855C1820.02 682.979 1821.54 702.13 1819.71 710.233C1819.49 711.192 1819.2 712.104 1818.88 713.032C1819.45 714.352 1819.83 715.603 1819.9 717.044C1820.94 738.742 1821.02 940.21 1819.29 944.788C1819.11 945.272 1819.06 945.356 1818.85 945.772C1820.74 950.232 1821.16 1017.43 1819.45 1021.98C1819.17 1022.71 1818.86 1023.34 1818.44 1024L1482.49 1024L1309.71 1024L765.63 1024L511.859 1024L0 1024L0 945.993L0 761.649L0 0Z"/>
	<path fill="#73C9D8" d="M837.742 281.644C858.351 285.529 898.882 300.676 913.859 315.078C905.392 313.268 842.362 290.606 840.164 287.604C840.2 287.43 840.258 287.259 840.272 287.081C840.463 284.719 839.428 283.961 838 282.239L837.742 281.644Z"/>
	<path fill="#1E714D" d="M1081.83 381.343L1081.74 379.756C1076.91 372.794 1072.5 365.152 1073.05 356.409C1073.45 350.021 1076.18 344.573 1081.05 340.403C1086.6 335.655 1094.1 333.017 1101.42 333.778C1105.28 334.181 1109.11 335.671 1111.5 338.883C1113.66 341.783 1114.16 344.942 1113.78 348.442L1112.66 350.228C1106.3 349.981 1097.5 351.694 1092.65 356.044C1082.08 365.508 1086.65 372.156 1083.37 381.355L1081.83 381.343Z"/>
	<path fill="#F8FCFD" d="M368.263 211.831C366.876 211.7 365.457 211.348 364.085 211.085C362.718 209.48 362.438 208.949 362.251 206.775C361.813 201.67 364.695 196.755 367.87 193.003C379.125 179.702 397.23 171.951 410.942 161.399C425.337 150.321 436.637 135.338 452.173 125.635C458.537 121.661 468.358 117.438 476.008 117.184C478.357 117.106 479.178 117.655 480.828 119.116C482.018 122.022 481.463 124.387 480.943 127.378C448.187 134.84 437.226 161.207 411.419 178.619C400.05 186.29 380.341 189.822 372.91 201.774C371.003 204.842 369.589 208.468 368.263 211.831Z"/>
	<path fill="#332459" d="M368.263 211.831C369.589 208.468 371.003 204.842 372.91 201.774C380.341 189.822 400.05 186.29 411.419 178.619C437.226 161.207 448.187 134.84 480.943 127.378C478.635 142.39 468.567 154.331 471.649 170.037Q468.384 177.07 465.218 184.149L472.514 185.172Q468.687 189.145 465.31 193.506Q461.932 197.867 459.044 202.567C457.562 205.084 455.952 207.588 454.595 210.171C449.94 206.303 443.284 204.397 437.711 202.152C439.98 206.535 442.172 210.811 443.806 215.485C424.573 207.892 406.932 207.949 386.648 210.113C380.715 210.746 374.206 212.053 368.263 211.831Z"/>
	<path fill="#F8FCFD" d="M437.711 202.152C436.948 199.031 436.594 196.221 437.025 193.009C437.461 189.762 438.956 186.886 441.718 185.007C448.625 180.311 457.738 182.675 465.218 184.149L472.514 185.172Q468.687 189.145 465.31 193.506Q461.932 197.867 459.044 202.567C457.562 205.084 455.952 207.588 454.595 210.171C449.94 206.303 443.284 204.397 437.711 202.152Z"/>
	<path fill="#D99F8C" d="M1142.06 182.325L1142.79 182.151C1156.74 178.735 1170.3 170.917 1184 166.257C1196.28 162.079 1209.22 160.354 1221.45 155.846C1228.91 153.091 1249.39 139.809 1255.9 141.38C1257.59 142.98 1257.6 142.899 1257.68 145.22C1253.52 153.493 1238.66 160.634 1230.99 165.311L1231.97 165.151C1243.14 163.218 1276.26 146.529 1285.44 152.596C1286.39 154.647 1286.19 154.605 1285.5 156.628C1278.35 164.026 1251.03 171.121 1248.27 175.169C1256.72 177.624 1285.04 169.476 1289.89 172.504C1290.8 173.073 1291.86 174.34 1292.67 175.093C1292.94 176.329 1293.38 176.974 1292.62 178.086C1288.8 183.71 1253.65 187.694 1245.21 188.865L1242.43 189.243C1253.48 191.726 1277.65 194.853 1285.6 202.745L1286.33 205.008C1285.34 206.779 1285.28 206.812 1283.31 207.33C1271.52 210.434 1248.92 202.159 1234.9 202.983C1231.95 206.145 1226.14 208.087 1226.22 212.984C1226.29 216.909 1230.49 220.958 1233.23 223.378C1237.91 227.508 1251.08 234.049 1251.76 240.174C1250.59 241.827 1249.96 242.638 1247.81 243.053C1239.71 244.614 1216.5 227.064 1210.06 221.826C1204.61 217.391 1192.06 203.095 1187.81 200.869C1179.83 205.712 1171.01 212.075 1162.27 215.259Q1162.03 214.336 1161.77 213.418C1158.51 201.956 1153.01 188.396 1142.06 182.325Z"/>
	<path fill="#314388" d="M1113.78 348.442C1131.98 346.157 1149.88 343.84 1168.25 343.265C1177.07 348.246 1218.76 415.722 1221.93 427.176C1222.27 428.415 1222.24 429.456 1222.13 430.712C1222.99 436.881 1213.96 448.909 1210.27 453.802C1205.59 459.997 1199.12 468.25 1192.26 472.021C1195.48 474.334 1198.47 476.491 1199.2 480.677C1199.52 482.513 1199.4 484.101 1199.05 485.915C1195.81 490.342 1192.82 492.926 1187.28 493.796C1183.55 494.381 1179.19 493.953 1175.66 495.107L1175.03 493.616C1168.84 490.525 1162.38 486.705 1155.81 484.601C1153.43 480.959 1144.1 474.609 1139.86 473.598L1139.6 471.781C1134.78 465.48 1128.37 460.718 1123.42 454.538C1117.64 447.32 1111.88 439.761 1106.89 431.976C1103.65 426.917 1097.38 413.127 1093.86 409.868C1093.38 409.424 1091.8 408.976 1091.14 408.689C1092.04 407.924 1092.25 407.313 1092.64 406.213C1090.22 399.151 1087.88 387.124 1083.37 381.355C1086.65 372.156 1082.08 365.508 1092.65 356.044C1097.5 351.694 1106.3 349.981 1112.66 350.228L1113.78 348.442Z"/>
	<path fill="#54A761" d="M1083.37 381.355C1086.65 372.156 1082.08 365.508 1092.65 356.044C1097.5 351.694 1106.3 349.981 1112.66 350.228L1112.81 350.883C1114.74 359.242 1114.49 367.956 1116.72 376.314C1127.18 415.46 1154.62 448.117 1188.44 469.624Q1190.34 470.834 1192.26 472.021C1195.48 474.334 1198.47 476.491 1199.2 480.677C1199.52 482.513 1199.4 484.101 1199.05 485.915C1195.81 490.342 1192.82 492.926 1187.28 493.796C1183.55 494.381 1179.19 493.953 1175.66 495.107L1175.03 493.616C1168.84 490.525 1162.38 486.705 1155.81 484.601C1153.43 480.959 1144.1 474.609 1139.86 473.598L1139.6 471.781C1134.78 465.48 1128.37 460.718 1123.42 454.538C1117.64 447.32 1111.88 439.761 1106.89 431.976C1103.65 426.917 1097.38 413.127 1093.86 409.868C1093.38 409.424 1091.8 408.976 1091.14 408.689C1092.04 407.924 1092.25 407.313 1092.64 406.213C1090.22 399.151 1087.88 387.124 1083.37 381.355Z"/>
	<path fill="#E13C3B" d="M998.323 321.304C1026.1 264.1 1071.6 210.581 1130.66 184.204C1134.55 182.471 1137.94 180.755 1142.06 182.325C1153.01 188.396 1158.51 201.956 1161.77 213.418Q1162.03 214.336 1162.27 215.259L1162.08 215.99C1162.68 221.511 1163.91 228.347 1160.5 233.224C1160.39 233.375 1160.26 233.508 1160.14 233.65C1160.04 233.756 1159.94 233.864 1159.83 233.968C1156.23 237.506 1150.9 240.194 1146.77 243.257C1131.1 254.868 1107.29 270.928 1095.92 286.43C1089.3 295.445 1085.4 308.401 1080.88 318.639C1072.56 337.522 1062.13 356.529 1056.94 376.572C1055.67 381.49 1054.37 391.837 1051.13 395.518C1056.51 395.875 1062.49 392.741 1067.57 393.803C1072.15 391.448 1077.56 384.806 1081.83 381.343L1083.37 381.355C1087.88 387.124 1090.22 399.151 1092.64 406.213C1092.25 407.313 1092.04 407.924 1091.14 408.689C1091.8 408.976 1093.38 409.424 1093.86 409.868C1097.38 413.127 1103.65 426.917 1106.89 431.976C1111.88 439.761 1117.64 447.32 1123.42 454.538C1128.37 460.718 1134.78 465.48 1139.6 471.781L1139.86 473.598C1144.1 474.609 1153.43 480.959 1155.81 484.601C1153.99 485.778 1151.91 486.297 1150.16 487.475C1147.32 489.375 1143.88 493.605 1140.99 494.821C1140.31 495.108 1139.01 495.117 1138.24 495.232C1133.13 493.123 1128.94 492.964 1123.46 493.398C1119.11 496.527 1114.37 494.893 1109.6 495.83C1105.15 496.704 1100.77 498.437 1096.36 499.579C1077.7 504.42 1065.59 497.026 1050.27 487.978L1049.26 488.992C1046.16 508.105 1021.24 540.575 1006.28 552.78C1002.03 561.311 999.984 572.059 997.339 581.253C991.757 600.658 985.261 618.042 974.922 635.436C984.268 662.703 991.353 692.509 991.926 721.495C993.047 733.837 995.05 747.861 993.721 760.15C984.175 769.326 972.116 774.749 958.739 774.896Q956.305 774.266 953.886 773.58C950.529 770.3 949.578 764.748 948.178 760.326C943.953 746.956 939.831 733.505 934.886 720.379C929.037 704.854 922.375 689.922 917.67 673.951L917.471 669.766C915.083 657.673 915.223 646.669 916.678 634.474C920.568 618.086 930.395 556.248 928.039 541.136Q927.802 539.589 927.458 538.063Q927.113 536.537 926.662 535.039Q926.211 533.541 925.656 532.078Q925.102 530.615 924.445 529.195Q923.789 527.775 923.034 526.404Q922.28 525.033 921.431 523.719Q920.582 522.405 919.643 521.154Q918.704 519.902 917.68 518.72C906.144 505.153 867.614 483.409 851.217 475.088C837.261 468.005 822.608 461.904 809.962 452.576C807.782 452.452 805.606 452.169 803.435 451.937C793.333 441.422 789.44 427.577 785.232 413.983Q778.15 412.55 771.038 411.272C767.036 392.127 765.891 374.148 768.058 354.673C770.948 347.723 772.599 337.036 776.104 328.493C785.681 305.158 800.147 290.493 823.385 280.798C828.305 280.511 832.921 280.303 837.742 281.644L838 282.239C839.428 283.961 840.463 284.719 840.272 287.081C840.258 287.259 840.2 287.43 840.164 287.604C842.362 290.606 905.392 313.268 913.859 315.078C917.99 316.979 922.939 318 927.33 319.179C951.418 325.647 973.896 325.622 998.323 321.304Z"/>
	<path fill="#D99F8C" d="M823.385 280.798C828.305 280.511 832.921 280.303 837.742 281.644L838 282.239C839.428 283.961 840.463 284.719 840.272 287.081C840.258 287.259 840.2 287.43 840.164 287.604C822.43 293.173 807.327 310.091 798.942 326.106C784.833 353.058 783.884 386.788 791.187 415.876C795.094 429.183 800.163 442.413 809.962 452.576C807.782 452.452 805.606 452.169 803.435 451.937C793.333 441.422 789.44 427.577 785.232 413.983Q778.15 412.55 771.038 411.272C767.036 392.127 765.891 374.148 768.058 354.673C770.948 347.723 772.599 337.036 776.104 328.493C785.681 305.158 800.147 290.493 823.385 280.798Z"/>
	<path fill="#FDEEEF" d="M838 282.239C839.428 283.961 840.463 284.719 840.272 287.081C840.258 287.259 840.2 287.43 840.164 287.604C822.43 293.173 807.327 310.091 798.942 326.106C784.833 353.058 783.884 386.788 791.187 415.876C795.094 429.183 800.163 442.413 809.962 452.576C807.782 452.452 805.606 452.169 803.435 451.937C793.333 441.422 789.44 427.577 785.232 413.983C784.256 409.074 783.281 404.144 782.681 399.173C778.986 368.526 782.351 334.204 802.067 309.226C809.976 299.206 824.871 283.811 838 282.239Z"/>
	<path fill="#CF2730" d="M791.187 415.876C802.631 418.637 833.748 443.525 845.139 451.048C855.097 457.624 866.327 462.615 876.791 468.364C898.594 480.342 924.028 497.567 937.168 519.113C958.4 553.924 933.706 600.462 930.845 638.049C928.975 662.612 933.092 686.636 939.837 710.179C944.036 724.835 946.933 736.924 962.452 742.848C979.36 739.117 982.056 735.423 991.926 721.495C993.047 733.837 995.05 747.861 993.721 760.15C984.175 769.326 972.116 774.749 958.739 774.896Q956.305 774.266 953.886 773.58C950.529 770.3 949.578 764.748 948.178 760.326C943.953 746.956 939.831 733.505 934.886 720.379C929.037 704.854 922.375 689.922 917.67 673.951L917.471 669.766C915.083 657.673 915.223 646.669 916.678 634.474C920.568 618.086 930.395 556.248 928.039 541.136Q927.802 539.589 927.458 538.063Q927.113 536.537 926.662 535.039Q926.211 533.541 925.656 532.078Q925.102 530.615 924.445 529.195Q923.789 527.775 923.034 526.404Q922.28 525.033 921.431 523.719Q920.582 522.405 919.643 521.154Q918.704 519.902 917.68 518.72C906.144 505.153 867.614 483.409 851.217 475.088C837.261 468.005 822.608 461.904 809.962 452.576C800.163 442.413 795.094 429.183 791.187 415.876Z"/>
	<path fill="#CF2730" d="M1120.81 193.581C1122.51 194.931 1124.31 196.351 1125.57 198.131C1130.39 204.912 1138.39 223.286 1136.99 231.457C1146.29 228.587 1152.97 218.962 1162.08 215.99C1162.68 221.511 1163.91 228.347 1160.5 233.224C1160.39 233.375 1160.26 233.508 1160.14 233.65C1160.04 233.756 1159.94 233.864 1159.83 233.968C1156.23 237.506 1150.9 240.194 1146.77 243.257C1131.1 254.868 1107.29 270.928 1095.92 286.43C1089.3 295.445 1085.4 308.401 1080.88 318.639C1072.56 337.522 1062.13 356.529 1056.94 376.572C1055.67 381.49 1054.37 391.837 1051.13 395.518C1047.38 399.278 1033.5 401.022 1028.17 400.78C1027.18 400.735 1026.26 400.585 1025.32 400.327C1015.05 407.076 1008.77 414.912 1006.17 427.171C1003.69 438.879 1005.32 451.01 1011.96 461.09C1014.63 465.149 1018.19 469.05 1022.04 472.034C1028.82 477.26 1036.1 481.265 1043.14 486.056L1042.52 487.207C1044.83 487.503 1047.27 487.671 1049.26 488.992C1046.16 508.105 1021.24 540.575 1006.28 552.78C1010.04 538.198 1018.32 527.46 1017.89 511.492C1017.42 493.542 1005.7 482.433 998.3 467.313C986.617 443.453 990.027 408.727 1002.48 385.881C1009.93 372.211 1019.96 360.61 1029.98 348.812C1047.79 327.835 1067.73 306.835 1082.46 283.604C1085.28 279.164 1091.06 270.218 1090.65 265.048C1101.06 261.329 1112.57 252.186 1120.8 244.883C1125.97 240.295 1129.01 236.541 1129.33 229.47C1129.79 219.171 1127.78 201.356 1120.81 193.581Z"/>
	<path fill="#FDEEEF" d="M1042.52 487.207C1032.57 485.592 1022.82 481.29 1015.17 474.71Q1014.23 473.898 1013.32 473.039Q1012.42 472.181 1011.56 471.278Q1010.7 470.376 1009.89 469.431Q1009.08 468.486 1008.32 467.502Q1007.55 466.518 1006.84 465.496Q1006.13 464.475 1005.46 463.419Q1004.8 462.363 1004.2 461.275Q1003.59 460.187 1003.04 459.07Q1002.49 457.954 1001.99 456.81Q1001.5 455.667 1001.06 454.5Q1000.62 453.334 1000.24 452.147Q999.867 450.959 999.549 449.755Q999.231 448.55 998.975 447.331Q998.718 446.112 998.523 444.882Q998.327 443.651 998.194 442.412Q998.061 441.174 997.99 439.93C997.204 426.627 1001.12 412.955 1010.16 402.981C1016.07 396.45 1023.85 391.78 1032.84 391.515C1036.18 391.417 1041.91 391.619 1044.37 393.919C1040.52 396.775 1030.61 397.949 1025.32 400.327C1015.05 407.076 1008.77 414.912 1006.17 427.171C1003.69 438.879 1005.32 451.01 1011.96 461.09C1014.63 465.149 1018.19 469.05 1022.04 472.034C1028.82 477.26 1036.1 481.265 1043.14 486.056L1042.52 487.207Z"/>
	<path fill="#E28B7D" d="M1081.83 381.343L1083.37 381.355C1087.88 387.124 1090.22 399.151 1092.64 406.213C1092.25 407.313 1092.04 407.924 1091.14 408.689C1091.8 408.976 1093.38 409.424 1093.86 409.868C1097.38 413.127 1103.65 426.917 1106.89 431.976C1111.88 439.761 1117.64 447.32 1123.42 454.538C1128.37 460.718 1134.78 465.48 1139.6 471.781L1139.86 473.598C1144.1 474.609 1153.43 480.959 1155.81 484.601C1153.99 485.778 1151.91 486.297 1150.16 487.475C1147.32 489.375 1143.88 493.605 1140.99 494.821C1140.31 495.108 1139.01 495.117 1138.24 495.232C1133.13 493.123 1128.94 492.964 1123.46 493.398C1119.11 496.527 1114.37 494.893 1109.6 495.83C1105.15 496.704 1100.77 498.437 1096.36 499.579C1077.7 504.42 1065.59 497.026 1050.27 487.978L1049.26 488.992C1047.27 487.671 1044.83 487.503 1042.52 487.207L1043.14 486.056C1036.1 481.265 1028.82 477.26 1022.04 472.034C1018.19 469.05 1014.63 465.149 1011.96 461.09C1005.32 451.01 1003.69 438.879 1006.17 427.171C1008.77 414.912 1015.05 407.076 1025.32 400.327C1026.26 400.585 1027.18 400.735 1028.17 400.78C1033.5 401.022 1047.38 399.278 1051.13 395.518C1056.51 395.875 1062.49 392.741 1067.57 393.803C1072.15 391.448 1077.56 384.806 1081.83 381.343Z"/>
	<path fill="#CF2730" d="M1071 476.831C1071.26 476.868 1071.52 476.884 1071.77 476.941C1074.48 477.551 1075.94 480.478 1077.46 482.617C1080.22 486.493 1083.57 491.699 1082.76 496.476C1081.75 496.814 1081.88 496.969 1080.77 496.489C1075.34 494.145 1072.83 481.991 1071 476.831Z"/>
	<path fill="#100202" d="M1139.86 473.598C1144.1 474.609 1153.43 480.959 1155.81 484.601C1153.99 485.778 1151.91 486.297 1150.16 487.475C1147.32 489.375 1143.88 493.605 1140.99 494.821C1140.31 495.108 1139.01 495.117 1138.24 495.232C1133.13 493.123 1128.94 492.964 1123.46 493.398C1123.61 493.299 1123.76 493.204 1123.9 493.102C1128.23 490.053 1139.01 478.64 1139.86 473.598Z"/>
	<path fill="#100202" d="M1081.83 381.343L1083.37 381.355C1087.88 387.124 1090.22 399.151 1092.64 406.213C1092.25 407.313 1092.04 407.924 1091.14 408.689C1090.84 409.049 1090.47 409.533 1090.12 409.867C1084.49 415.208 1074.38 419.271 1066.66 418.75C1063.99 418.569 1062.17 417.888 1060.36 415.867C1057.08 407.923 1065.56 401.591 1067.34 394.79C1067.42 394.463 1067.49 394.132 1067.57 393.803C1072.15 391.448 1077.56 384.806 1081.83 381.343Z"/>
	<path fill="#E13C3B" d="M1042.37 462.959C1047.18 458.226 1048.69 448.512 1052.51 442.546C1054.88 438.863 1059.77 437.669 1062.53 434.23C1063.51 440.715 1054.95 454.312 1052.8 461.1C1050.11 469.622 1052.07 482.759 1050.27 487.978L1049.26 488.992C1047.27 487.671 1044.83 487.503 1042.52 487.207L1043.14 486.056C1036.1 481.265 1028.82 477.26 1022.04 472.034C1022.06 468.627 1022.08 465.077 1022.98 461.768C1024.65 455.581 1031.47 445.775 1029.76 439.48C1032.45 443.152 1042.35 459.195 1042.37 462.959Z"/>
	<path fill="#4E396A" d="M472.514 185.172C549.952 203.793 627.638 221.572 704.298 243.279C744.364 254.624 783.779 268 823.385 280.798C800.147 290.493 785.681 305.158 776.104 328.493C772.599 337.036 770.948 347.723 768.058 354.673C765.891 374.148 767.036 392.127 771.038 411.272Q778.15 412.55 785.232 413.983C789.44 427.577 793.333 441.422 803.435 451.937C805.606 452.169 807.782 452.452 809.962 452.576C822.608 461.904 837.261 468.005 851.217 475.088C867.614 483.409 906.144 505.153 917.68 518.72Q918.704 519.902 919.643 521.154Q920.582 522.405 921.431 523.719Q922.28 525.033 923.034 526.404Q923.789 527.775 924.445 529.195Q925.102 530.615 925.656 532.078Q926.211 533.541 926.662 535.039Q927.113 536.537 927.458 538.063Q927.802 539.589 928.039 541.136C930.395 556.248 920.568 618.086 916.678 634.474C894.472 632.718 871.732 633.729 849.48 634.21Q780.706 635.02 712.314 642.307C696.76 643.955 681.137 645.436 665.649 647.614C653.975 649.256 642.36 651.563 630.675 653.049C629.526 653.195 628.788 652.982 627.714 652.621C626.609 654.785 625.538 657.682 623.917 659.471C619.763 660.355 615.501 661.507 611.264 661.837C605.545 662.491 599.786 662.36 594.039 662.358L591.897 662.144C593.128 645.587 592.972 628.746 593.323 612.147Q594.161 575.517 594.615 538.88C594.649 529.372 592.371 519.693 592.874 510.247C594.279 483.877 688.607 387.36 712.611 365.315C699.287 354.033 685.2 343.451 671.441 332.693C656.756 319.971 640.801 304.201 623.507 295.32C604.746 285.686 582.674 283.003 562.922 275.87C553.181 272.352 543.495 268.071 534.3 263.303C518.38 255.047 463.042 222.739 454.595 210.171C455.952 207.588 457.562 205.084 459.044 202.567Q461.932 197.867 465.31 193.506Q468.687 189.145 472.514 185.172Z"/>
	<path fill="#332459" d="M459.044 202.567C495.913 218.05 530.505 243.003 569.494 253.061C577.519 255.131 587.135 255.454 595.408 255.053C600.852 254.789 620.506 250.65 623.346 251.958C626.417 253.372 636.006 274.198 638.969 278.531C655.555 302.791 685.564 327.878 716.08 329.881C727.104 330.604 737.589 328.117 747.713 323.964C756.839 320.221 765.739 315.821 774.642 311.574C773.008 314.449 771.286 318.001 768.726 320.161C758.5 328.788 745.817 334.78 735.209 343.208C726.952 349.769 720.667 358.862 712.611 365.315C699.287 354.033 685.2 343.451 671.441 332.693C656.756 319.971 640.801 304.201 623.507 295.32C604.746 285.686 582.674 283.003 562.922 275.87C553.181 272.352 543.495 268.071 534.3 263.303C518.38 255.047 463.042 222.739 454.595 210.171C455.952 207.588 457.562 205.084 459.044 202.567Z"/>
	<path fill="#332459" d="M768.058 354.673C765.891 374.148 767.036 392.127 771.038 411.272Q778.15 412.55 785.232 413.983C789.44 427.577 793.333 441.422 803.435 451.937C802.085 452.52 800.715 453.098 799.29 453.473C794.668 454.69 791.791 452.71 787.931 450.487C772.187 458.211 757.695 470.332 742.781 479.756C716.755 496.201 689.799 511.256 663.958 527.966C665.62 574.676 647 611.461 627.714 652.621C626.609 654.785 625.538 657.682 623.917 659.471C619.763 660.355 615.501 661.507 611.264 661.837C611.126 661.324 610.839 660.83 610.851 660.299C610.865 659.723 620.805 638.888 621.796 636.282C629.379 616.348 648.53 560.27 645.005 541.593C643.495 533.595 629.757 529.929 623.385 525.525C633.073 522.134 642.689 518.699 651.819 513.963C668.443 505.34 683.936 493.859 699.625 483.613C715.177 473.457 732.155 463.841 746.399 451.97C746.732 426.741 751.28 374.805 768.058 354.673Z"/>
	<path fill="#E28B7D" d="M771.038 411.272Q778.15 412.55 785.232 413.983C789.44 427.577 793.333 441.422 803.435 451.937C802.085 452.52 800.715 453.098 799.29 453.473C794.668 454.69 791.791 452.71 787.931 450.487C779.156 439.228 774.738 424.832 771.038 411.272Z"/>
	<path fill="#73C9D8" d="M787.931 450.487C791.791 452.71 794.668 454.69 799.29 453.473C800.715 453.098 802.085 452.52 803.435 451.937C805.606 452.169 807.782 452.452 809.962 452.576C822.608 461.904 837.261 468.005 851.217 475.088C867.614 483.409 906.144 505.153 917.68 518.72Q918.704 519.902 919.643 521.154Q920.582 522.405 921.431 523.719Q922.28 525.033 923.034 526.404Q923.789 527.775 924.445 529.195Q925.102 530.615 925.656 532.078Q926.211 533.541 926.662 535.039Q927.113 536.537 927.458 538.063Q927.802 539.589 928.039 541.136C930.395 556.248 920.568 618.086 916.678 634.474C894.472 632.718 871.732 633.729 849.48 634.21Q780.706 635.02 712.314 642.307C696.76 643.955 681.137 645.436 665.649 647.614C653.975 649.256 642.36 651.563 630.675 653.049C629.526 653.195 628.788 652.982 627.714 652.621C647 611.461 665.62 574.676 663.958 527.966C689.799 511.256 716.755 496.201 742.781 479.756C757.695 470.332 772.187 458.211 787.931 450.487Z"/>
	<path fill="#73C9D8" d="M671.441 332.693C685.2 343.451 699.287 354.033 712.611 365.315C688.607 387.36 594.279 483.877 592.874 510.247C592.371 519.693 594.649 529.372 594.615 538.88Q594.162 575.517 593.323 612.147C592.972 628.746 593.128 645.587 591.897 662.144C591.256 666.382 590.681 670.358 590.994 674.665C586.366 673.735 580.934 671.852 576.665 674.556C575.242 677.012 575.353 677.894 575.428 680.638C576.135 682.785 576.695 685.376 577.807 687.326C578.881 689.251 580.681 693.829 582.827 694.384C586.741 695.396 589.981 695.715 593.802 697.43C587.567 697.229 582.656 696.671 577.725 701.302C574.514 704.318 571.764 708.104 568.119 710.591C558.707 709.871 548.824 710.941 539.387 711.437Q511.832 712.765 484.361 715.294C466.026 716.864 447.208 719.163 428.817 717.801C423.078 717.377 414.811 716.845 410.857 712.232C410.258 709.626 411.144 708.875 412.388 706.613C396.848 711.438 380.091 716.193 365.116 722.518Q320.006 739.307 275.902 758.587C267.014 762.453 256.137 765.933 248.298 771.55C233.538 779.674 217.728 786.112 202.855 794.179C162.323 816.163 121.73 842.085 85.5029 870.627C69.0838 883.563 52.5585 896.758 37.2355 910.973C24.8192 922.492 13.1677 935.385 0 945.993L0 761.649C15.3592 747.813 32.3039 734.62 50.7351 725.114C89.1495 705.301 123.072 704.16 163.613 717.161C167.259 702.233 173.691 687.344 180.976 673.854Q182.424 671.224 183.936 668.63Q185.447 666.036 187.022 663.48Q188.597 660.924 190.233 658.407Q191.869 655.89 193.567 653.413Q195.264 650.937 197.021 648.503Q198.779 646.069 200.595 643.678Q202.411 641.287 204.285 638.942Q206.159 636.596 208.09 634.297Q210.02 631.998 212.006 629.747Q213.992 627.496 216.033 625.294Q218.073 623.092 220.167 620.94Q222.261 618.788 224.406 616.688Q226.551 614.589 228.748 612.542Q230.944 610.495 233.189 608.502Q235.434 606.509 237.727 604.572Q240.021 602.635 242.361 600.754Q244.701 598.873 247.086 597.05Q249.471 595.227 251.899 593.463Q254.328 591.699 256.799 589.994Q259.271 588.29 261.783 586.646Q264.294 585.002 266.846 583.421Q269.397 581.839 271.986 580.32Q274.576 578.801 277.201 577.345Q279.826 575.89 282.487 574.499Q285.147 573.108 287.84 571.782Q290.534 570.457 293.258 569.197Q295.983 567.938 298.738 566.745Q301.493 565.553 304.276 564.428Q307.059 563.303 309.869 562.246Q312.678 561.189 315.513 560.202Q318.348 559.214 321.206 558.296Q324.064 557.377 326.943 556.529C389.806 537.991 452.367 545.887 509.637 577.071C510.265 551.469 513.05 526.591 520.916 502.1C545.597 425.259 600.539 369.235 671.441 332.693Z"/>
	<path fill="#2E5C9A" d="M591.897 662.144C591.256 666.382 590.681 670.358 590.994 674.665C586.366 673.735 580.934 671.852 576.665 674.556C575.242 677.012 575.353 677.894 575.428 680.638C576.135 682.785 576.695 685.376 577.807 687.326C578.881 689.251 580.681 693.829 582.827 694.384C586.741 695.396 589.981 695.715 593.802 697.43C587.567 697.229 582.656 696.671 577.725 701.302C574.514 704.318 571.764 708.104 568.119 710.591C558.707 709.871 548.824 710.941 539.387 711.437Q511.832 712.765 484.361 715.294C466.026 716.864 447.208 719.163 428.817 717.801C423.078 717.377 414.811 716.845 410.857 712.232C410.258 709.626 411.144 708.875 412.388 706.613C439.564 696.685 468.96 689.756 496.998 682.684C527.972 674.872 560.185 666.232 591.897 662.144Z"/>
	<path fill="#73C9D8" d="M1199.05 485.915C1210.4 481.096 1221.64 476.157 1233.47 472.635Q1235.99 471.901 1238.53 471.219Q1241.07 470.537 1243.62 469.909Q1246.18 469.28 1248.74 468.704Q1251.31 468.128 1253.88 467.605Q1256.46 467.082 1259.05 466.613Q1261.63 466.144 1264.23 465.729Q1266.82 465.313 1269.43 464.951Q1272.03 464.59 1274.64 464.282Q1277.25 463.975 1279.87 463.721Q1282.48 463.468 1285.11 463.269Q1287.73 463.07 1290.35 462.925Q1292.98 462.78 1295.6 462.69Q1298.23 462.599 1300.86 462.563Q1303.49 462.528 1306.12 462.546Q1308.74 462.565 1311.37 462.638Q1314 462.711 1316.62 462.838Q1319.25 462.966 1321.87 463.147Q1324.49 463.329 1327.11 463.565Q1329.73 463.801 1332.34 464.092Q1334.96 464.382 1337.56 464.727Q1340.17 465.071 1342.77 465.469Q1345.36 465.868 1347.95 466.32Q1350.54 466.772 1353.12 467.277Q1355.7 467.783 1358.27 468.342Q1360.84 468.901 1363.4 469.513Q1365.95 470.125 1368.5 470.79Q1371.04 471.455 1373.57 472.172Q1376.1 472.89 1378.61 473.66Q1381.12 474.429 1383.62 475.251Q1386.12 476.073 1388.6 476.946Q1391.08 477.819 1393.54 478.743Q1396 479.668 1398.44 480.643C1462.42 506.55 1513.49 554.184 1540.4 618.249C1544.65 628.36 1561.85 675.648 1558.43 684.548C1558.34 684.778 1558.23 684.998 1558.13 685.223C1566.8 681.911 1575.44 678.05 1584.4 675.608C1610.4 668.518 1638.68 671.721 1663.11 682.656C1684.85 692.389 1714.85 715.699 1723.41 738.636C1723.85 739.825 1723.88 740.954 1723.68 742.189C1742.82 734.588 1759.95 724.554 1780.23 719.341C1789.07 717.067 1798.12 715.574 1807.16 714.366C1810.77 713.885 1815.47 714.056 1818.88 713.032C1819.45 714.352 1819.83 715.603 1819.9 717.044C1820.94 738.742 1821.02 940.21 1819.29 944.788C1819.11 945.272 1819.06 945.356 1818.85 945.772C1818.63 945.296 1818.57 945.112 1818.2 944.654C1814.14 939.63 1807.82 934.91 1803 930.558C1762.61 894.132 1720.49 860.574 1674.83 830.913C1668.67 826.907 1658.73 818.616 1651.42 817.906L1651.81 817.049C1651.75 816.903 1651.71 816.747 1651.63 816.613C1649.51 813.171 1628.91 804.024 1624.17 801.448C1612.91 795.329 1602.02 788.589 1590.63 782.709Q1569.75 771.891 1548.41 761.998Q1527.07 752.104 1505.33 743.155Q1483.58 734.205 1461.46 726.216Q1439.34 718.227 1416.89 711.214C1398.02 705.149 1378.82 698.166 1359.41 694.174C1355.78 690.546 1332.33 685.986 1326.49 684.468Q1294.86 676.487 1262.93 669.807Q1231.01 663.127 1198.83 657.758Q1166.66 652.39 1134.29 648.342Q1101.93 644.294 1069.42 641.573C1038.08 638.756 1006.39 636.083 974.922 635.436C985.261 618.042 991.757 600.658 997.339 581.253C999.984 572.059 1002.03 561.311 1006.28 552.78C1021.24 540.575 1046.16 508.105 1049.26 488.992L1050.27 487.978C1065.59 497.026 1077.7 504.42 1096.36 499.579C1100.77 498.437 1105.15 496.704 1109.6 495.83C1114.37 494.893 1119.11 496.527 1123.46 493.398C1128.94 492.964 1133.13 493.123 1138.24 495.232C1139.01 495.117 1140.31 495.108 1140.99 494.821C1143.88 493.605 1147.32 489.375 1150.16 487.475C1151.91 486.297 1153.99 485.778 1155.81 484.601C1162.38 486.705 1168.84 490.525 1175.03 493.616L1175.66 495.107C1179.19 493.953 1183.55 494.381 1187.28 493.796C1192.82 492.926 1195.81 490.342 1199.05 485.915Z"/>
	<path fill="#1E714D" d="M1155.81 484.601C1162.38 486.705 1168.84 490.525 1175.03 493.616L1175.66 495.107C1176.7 498.003 1176.61 500.656 1176.37 503.681C1175.86 510.081 1173.35 516.929 1168.23 521.076C1164.2 524.331 1158.83 524.728 1153.86 524.087C1149.71 523.553 1146.22 521.945 1143.67 518.542C1139.18 512.571 1138.58 504.221 1139.7 497.132L1138.24 495.232C1139.01 495.117 1140.31 495.108 1140.99 494.821C1143.88 493.605 1147.32 489.375 1150.16 487.475C1151.91 486.297 1153.99 485.778 1155.81 484.601Z"/>
	<path fill="#4C81B5" d="M627.714 652.621C628.788 652.982 629.526 653.195 630.675 653.049C642.36 651.563 653.975 649.256 665.649 647.614C681.137 645.436 696.76 643.955 712.314 642.307Q780.706 635.02 849.48 634.21C871.732 633.729 894.472 632.718 916.678 634.474C915.223 646.669 915.083 657.673 917.471 669.766L917.67 673.951C922.375 689.922 929.037 704.854 934.886 720.379C939.831 733.505 943.953 746.956 948.178 760.326C949.578 764.748 950.529 770.3 953.886 773.58Q956.305 774.266 958.739 774.896C972.116 774.749 984.175 769.326 993.721 760.15C995.05 747.861 993.047 733.837 991.926 721.495C991.353 692.509 984.268 662.703 974.922 635.436C1006.39 636.083 1038.08 638.756 1069.42 641.573Q1101.93 644.294 1134.29 648.342Q1166.66 652.39 1198.83 657.758Q1231.01 663.127 1262.93 669.807Q1294.86 676.487 1326.49 684.468C1332.33 685.986 1355.78 690.546 1359.41 694.174C1378.82 698.166 1398.02 705.149 1416.89 711.214Q1439.34 718.227 1461.46 726.216Q1483.58 734.205 1505.33 743.155Q1527.07 752.104 1548.41 761.998Q1569.75 771.891 1590.63 782.709C1602.02 788.589 1612.91 795.329 1624.17 801.448C1628.91 804.024 1649.51 813.171 1651.63 816.613C1651.71 816.747 1651.75 816.903 1651.81 817.049L1651.42 817.906C1658.73 818.616 1668.67 826.907 1674.83 830.913C1720.49 860.574 1762.61 894.132 1803 930.558C1807.82 934.91 1814.14 939.63 1818.2 944.654C1818.57 945.112 1818.63 945.296 1818.85 945.772C1820.74 950.232 1821.16 1017.43 1819.45 1021.98C1819.17 1022.71 1818.86 1023.34 1818.44 1024L1482.49 1024L1309.71 1024L765.63 1024L511.859 1024L0 1024L0 945.993C13.1677 935.385 24.8192 922.492 37.2355 910.973C52.5585 896.758 69.0838 883.563 85.5029 870.627C121.73 842.085 162.323 816.163 202.855 794.179C217.728 786.112 233.538 779.674 248.298 771.55C256.137 765.933 267.014 762.453 275.902 758.587Q320.006 739.307 365.116 722.518C380.091 716.193 396.848 711.438 412.388 706.613C411.144 708.875 410.258 709.626 410.857 712.232C414.811 716.845 423.078 717.377 428.817 717.801C447.208 719.163 466.026 716.864 484.361 715.294Q511.832 712.765 539.387 711.437C548.824 710.941 558.707 709.871 568.119 710.591C571.764 708.104 574.514 704.318 577.725 701.302C582.656 696.671 587.567 697.229 593.802 697.43C589.981 695.715 586.741 695.396 582.827 694.384C580.681 693.829 578.881 689.251 577.807 687.326C576.695 685.376 576.135 682.785 575.428 680.638C575.353 677.894 575.242 677.012 576.665 674.556C580.934 671.852 586.366 673.735 590.994 674.665C590.681 670.358 591.256 666.382 591.897 662.144L594.039 662.358C599.786 662.36 605.545 662.491 611.264 661.837C615.501 661.507 619.763 660.355 623.917 659.471C625.538 657.682 626.609 654.785 627.714 652.621Z"/>
	<path fill="#D99F8C" d="M635.543 793.994C639.42 794.189 647.681 793.88 650.505 796.738C651.294 797.536 651.205 798.184 651.406 799.242C637.91 808.332 622.208 813.628 605.913 813.531C614.029 807.161 624.235 804.02 632.662 798.221C634.653 796.851 635.093 796.31 635.543 793.994Z"/>
	<path fill="#F3CE7C" d="M1265.07 719.553C1268.38 719.085 1274.26 719.555 1277.08 721.496C1280.64 723.945 1279.9 727.942 1281.28 731.533C1284.05 738.728 1292.42 744.331 1293.49 751.919C1292.93 753.39 1292.9 753.723 1291.61 754.623C1287.56 757.456 1279.08 759.743 1274.2 758.451C1268.44 756.927 1273.42 747.098 1270.75 742.437C1268.8 740.564 1267.28 740.041 1264.72 739.524L1263.87 739.36C1263.22 738.995 1262.24 738.947 1261.52 738.821C1259.56 740.508 1259.25 743.715 1258.5 746.109C1257.8 748.32 1256.62 751.75 1254.31 752.659C1248.7 754.867 1237.32 753.482 1232.09 750.638C1230.9 748.594 1230.9 748.079 1230.92 745.687C1234.58 737.607 1246.86 737.048 1254.01 733.593C1254.2 733.503 1254.38 733.407 1254.57 733.314C1259.63 728.894 1256.69 724.431 1265.07 719.553Z"/>
	<path fill="#314388" d="M919.935 757.399C929.375 759.772 938.446 760.56 948.178 760.326C949.578 764.748 950.529 770.3 953.886 773.58Q956.305 774.266 958.739 774.896C972.116 774.749 984.175 769.326 993.721 760.15L994.297 766.679C1023.25 772.591 1082.73 780.943 1099.32 806.708C1104.14 814.19 1104.52 822.679 1102.61 831.173C1098.87 847.82 1086.32 860.545 1072.28 869.313C1010.98 907.579 908.839 909.585 839.377 893.365C811.659 886.893 768.245 872.25 752.322 846.635C748.026 839.724 745.801 831.818 746.612 823.676C748.556 819.597 748.649 814.655 751.189 810.47C770.958 777.905 842.316 764.163 877.496 760.609C891.43 759.201 906.351 760.474 919.935 757.399Z"/>
	<path fill="#E28B7D" d="M958.739 774.896C972.116 774.749 984.175 769.326 993.721 760.15L994.297 766.679C994.789 774.483 995.318 782.282 995.478 790.101C1003.71 800.918 1017.11 807.326 1030.39 809.165C1045.05 811.196 1054.23 807.258 1067.86 806.959C1069.88 806.915 1071.41 807.166 1073.19 808.143C1073.24 808.989 1073.53 809.563 1072.95 810.234C1068.74 815.132 1061.07 816.791 1054.93 817.148Q1043.46 817.704 1031.98 817.794C1042.97 820.955 1073.21 821.018 1079.28 825.148C1080.12 827.067 1080.46 828.069 1079.52 830.159C1078.86 831.621 1077.26 833.128 1075.7 833.54C1063.13 836.842 1045.79 833.85 1033.05 832.289C1041.58 835.425 1070.42 842.056 1074.11 849.097C1073.89 849.838 1073.98 850.393 1073.26 850.765C1065.07 855.004 1048.49 849.803 1040.06 846.905C1030.55 843.635 1021.75 838.929 1012.98 834.061C1019.86 840.309 1047.57 858.068 1048.46 865.755C1047.12 867.444 1046.98 867.468 1044.85 867.748C1026.78 870.118 1010.69 839.36 990.951 839.52Q989.805 839.53 988.663 839.609Q987.52 839.688 986.384 839.836Q985.248 839.984 984.123 840.2Q982.998 840.416 981.888 840.7Q980.778 840.984 979.687 841.334Q978.597 841.684 977.529 842.1Q976.461 842.515 975.421 842.994Q974.38 843.473 973.37 844.014C964.631 848.605 948.325 865.992 938.163 858.171C936.342 856.77 936.05 855.898 935.567 853.792C936.829 850.288 942.311 847.701 945.292 845.677C971.271 828.037 965.834 800.566 958.739 774.896Z"/>
	<path fill="#F3CE7C" d="M248.298 771.55C256.137 765.933 267.014 762.453 275.902 758.587Q320.006 739.307 365.116 722.518C377.608 729.397 392.569 733.807 405.854 739.181Q450.529 757.57 495.44 775.371L563.202 802.63C574.039 806.978 586.1 813.115 597.492 815.525C584.198 832.628 578.686 823.956 568.246 831.614C560.196 837.519 559.571 849.018 552.727 855.975C546.01 862.803 535.721 864.723 528.525 871.156C524.004 875.198 522.191 898.466 522.04 904.398C522.022 905.094 522.141 905.658 522.28 906.335C528.734 911.908 539.077 905.023 545.171 909.161C544.902 910.955 544.553 911.093 543.064 912.179C537.848 915.98 522.844 916.97 516.371 915.807C513.505 915.293 510.709 914.248 508.944 911.796C502.072 902.254 513.459 885.837 492.077 881.296C481.89 879.133 472.376 884.803 462.483 886.018C453.054 887.176 443.231 885.917 433.905 887.814C428.949 888.822 424.305 890.456 420.083 893.294C410.971 899.421 402.703 912.102 400.651 922.838C399.684 927.899 400.168 932.308 403.127 936.633C406.925 942.185 414.078 946.227 420.634 947.379C427.622 948.606 434.321 945.91 439.921 941.868C447.164 936.639 455.35 924.733 465.14 925.963C468.168 926.344 469.186 927.597 470.953 929.815C471.508 932.751 470.54 935.077 468.846 937.474C465.275 942.527 457.164 943.305 458.187 951.034C458.541 953.712 459.186 954.239 461.188 955.781C469.868 957.558 488.623 946.053 493.991 952.295C495.048 959.374 485.762 967.79 492.922 973.172C500.004 978.497 522.82 976.322 531.48 974.674C543.922 972.307 556.94 954.86 569.172 957.74C573.343 958.723 577.794 962.344 581.865 964.152C593.932 961.369 615.502 955.285 626.763 962.377C632.727 966.134 635.777 971.851 642.666 974.859C654.823 980.166 669.185 975.668 680.683 982.723C691.029 989.072 690.109 1002.96 702.258 1007.71C721.376 1015.18 749.797 1010.2 765.63 1024L511.859 1024C516.949 1019.1 521.574 1014.02 525.444 1008.09C528.179 1003.9 532.982 996.056 531.341 990.804C528.779 982.602 502.32 986.361 494.601 984.704C479.021 981.359 468.633 969.449 453.486 965.576C445.086 963.427 435.113 961.897 426.446 962.066C419.111 962.209 411.803 963.566 404.474 963.975C390.49 964.756 375.763 959.66 363.903 952.38C352.512 945.388 350.46 939.671 347.453 927.243C345.124 917.618 338.108 910.623 333.467 902.089C331.491 898.457 330.432 893.617 328.086 890.336C327.345 889.299 326.111 888.573 325.04 887.914C322.476 887.645 322.392 887.639 320.248 889.062C313.705 900.708 329.458 916.614 327.275 927.095C326.948 928.667 326.284 928.779 325.009 929.559C322.75 929.438 321.898 929.424 320.073 927.887C309.297 918.812 305.926 896.867 304.489 883.797C299.39 878.173 294.803 872.074 293.335 864.448C288.409 838.866 316.194 830.036 326.945 813.617L327.471 812.804C327.318 807.722 327.256 802.806 328.001 797.753C329.097 790.321 338.616 782.183 338.217 775.563C338.104 773.701 336.405 771.187 335.004 770.043C319.891 757.718 267.057 786.89 250.024 793.367C240.095 797.142 229.297 799.765 218.779 801.157C214.624 801.708 210.96 801.823 207.457 799.174L207.692 797.857C217.485 789.775 233.699 789.435 245.186 783.962C248.357 782.452 251.107 780.706 252.345 777.251C251.745 774.274 250.457 773.613 248.298 771.55Z"/>
	<path fill="#2E5C9A" d="M627.714 652.621C628.788 652.982 629.526 653.195 630.675 653.049C642.36 651.563 653.975 649.256 665.649 647.614C681.137 645.436 696.76 643.955 712.314 642.307Q780.706 635.02 849.48 634.21C871.732 633.729 894.472 632.718 916.678 634.474C915.223 646.669 915.083 657.673 917.471 669.766L917.67 673.951C922.375 689.922 929.037 704.854 934.886 720.379C939.831 733.505 943.953 746.956 948.178 760.326C938.446 760.56 929.375 759.772 919.935 757.399C906.351 760.474 891.43 759.201 877.496 760.609C842.316 764.163 770.958 777.905 751.189 810.47C748.649 814.655 748.556 819.597 746.612 823.676C732.63 814.112 655.16 803.177 651.406 799.242C651.205 798.184 651.294 797.536 650.505 796.738C647.681 793.88 639.42 794.189 635.543 793.994C635.093 796.31 634.653 796.851 632.662 798.221C624.235 804.02 614.029 807.161 605.913 813.531C602.832 813.674 600.055 813.562 597.492 815.525C586.1 813.115 574.039 806.978 563.202 802.63L495.44 775.371Q450.529 757.57 405.854 739.181C392.569 733.807 377.608 729.397 365.116 722.518C380.091 716.193 396.848 711.438 412.388 706.613C411.144 708.875 410.258 709.626 410.857 712.232C414.811 716.845 423.078 717.377 428.817 717.801C447.208 719.163 466.026 716.864 484.361 715.294Q511.832 712.765 539.387 711.437C548.824 710.941 558.707 709.871 568.119 710.591C571.764 708.104 574.514 704.318 577.725 701.302C582.656 696.671 587.567 697.229 593.802 697.43C589.981 695.715 586.741 695.396 582.827 694.384C580.681 693.829 578.881 689.251 577.807 687.326C576.695 685.376 576.135 682.785 575.428 680.638C575.353 677.894 575.242 677.012 576.665 674.556C580.934 671.852 586.366 673.735 590.994 674.665C590.681 670.358 591.256 666.382 591.897 662.144L594.039 662.358C599.786 662.36 605.545 662.491 611.264 661.837C615.501 661.507 619.763 660.355 623.917 659.471C625.538 657.682 626.609 654.785 627.714 652.621Z"/>
	<path fill="#DA8D3D" d="M644.017 709.272L644.359 710.049C648.255 718.727 665.726 722.106 663.291 730.89C662.426 734.012 659.524 736.307 656.71 737.639C639.854 745.616 622.424 739.043 605.302 737.278C618.725 727.497 632.298 721.577 644.017 709.272Z"/>
	<path fill="#DA8D3D" d="M692.191 699.374C702.027 698.443 726.85 704.571 737.834 706.68C763.692 711.644 789.512 716.477 815.277 721.915C812.356 722.604 809.381 723.47 806.428 723.974C792.177 729.289 775.945 731.908 762.582 739.161C754.937 743.31 748.785 753.598 743.455 755.568C738.556 757.379 732.959 756.464 728.41 754.124C719.98 749.788 711.411 738.576 712.438 728.635C712.987 723.329 717.333 715.931 715.372 710.807C713.96 707.117 710.078 705.687 706.787 704.095C702.392 701.848 696.939 700.768 692.191 699.374Z"/>
	<path fill="#4C81B5" d="M917.67 673.951C922.375 689.922 929.037 704.854 934.886 720.379C939.831 733.505 943.953 746.956 948.178 760.326C938.446 760.56 929.375 759.772 919.935 757.399Q889.156 747.114 857.812 738.706C841.022 734.252 822.117 731.317 806.428 723.974C809.381 723.47 812.356 722.604 815.277 721.915C828.516 721.738 852.08 714.652 860.461 704.145C864.235 699.413 866.629 692.197 871.747 688.838C884.175 680.681 903.307 677.809 917.67 673.951Z"/>
	<path fill="#332459" d="M611.264 661.837C615.501 661.507 619.763 660.355 623.917 659.471L623.295 662.107C626.667 667.097 638.181 679.139 639.635 682.57C643.911 686.197 649.197 689.871 649.583 695.987C649.815 699.652 647.922 703.358 646.133 706.449L644.017 709.272C632.298 721.577 618.725 727.497 605.302 737.278C595.782 748.816 583.633 751.54 569.264 752.904C556.639 754.104 541.861 755.03 529.381 752.398Q528.125 751.836 526.941 751.137C524.153 749.498 522.357 748.021 521.537 744.708C520.885 742.076 521.106 739.175 522.716 736.918C524.345 734.635 527.729 733.127 530.426 732.772C543.645 724.88 555.68 720.722 568.119 710.591C571.764 708.104 574.514 704.318 577.725 701.302C582.656 696.671 587.567 697.229 593.802 697.43C589.981 695.715 586.741 695.396 582.827 694.384C580.681 693.829 578.881 689.251 577.807 687.326C576.695 685.376 576.135 682.785 575.428 680.638C575.353 677.894 575.242 677.012 576.665 674.556C580.934 671.852 586.366 673.735 590.994 674.665C590.681 670.358 591.256 666.382 591.897 662.144L594.039 662.358C599.786 662.36 605.545 662.491 611.264 661.837Z"/>
	<path fill="#314388" d="M575.428 680.638L576.331 680.994C582.615 683.407 597.868 683.672 601.348 688.984L601.194 690.622C594.423 693.847 584.884 687.351 577.807 687.326C576.695 685.376 576.135 682.785 575.428 680.638Z"/>
	<path fill="#FDEEEF" d="M611.264 661.837C615.501 661.507 619.763 660.355 623.917 659.471L623.295 662.107C621.41 668.77 620.065 679.589 613.435 683.11C610.575 684.628 606.518 684.892 603.495 683.769C601.759 683.125 600.392 680.796 599.654 679.194C596.837 677.13 594.271 675.863 590.994 674.665C590.681 670.358 591.256 666.382 591.897 662.144L594.039 662.358C599.786 662.36 605.545 662.491 611.264 661.837Z"/>
	<path fill="#F8FCFD" d="M591.897 662.144L594.039 662.358C599.077 663.281 603.81 663.151 608.888 662.955C608.037 666.278 607.262 669.648 606.284 672.935L599.654 679.194C596.837 677.13 594.271 675.863 590.994 674.665C590.681 670.358 591.256 666.382 591.897 662.144Z"/>
	<path fill="#F8FCFD" d="M639.635 682.57C643.911 686.197 649.197 689.871 649.583 695.987C649.815 699.652 647.922 703.358 646.133 706.449L644.017 709.272C632.298 721.577 618.725 727.497 605.302 737.278C595.782 748.816 583.633 751.54 569.264 752.904C556.639 754.104 541.861 755.03 529.381 752.398Q528.125 751.836 526.941 751.137C524.153 749.498 522.357 748.021 521.537 744.708C520.885 742.076 521.106 739.175 522.716 736.918C524.345 734.635 527.729 733.127 530.426 732.772C545.254 741.571 564.346 744.474 581.238 741.099C586.646 740.019 591.74 738.078 596.331 734.998C602.154 731.091 605.815 724.229 611.147 719.664C620.617 711.558 632.599 706.537 639.768 695.922L639.635 682.57Z"/>
	<path fill="#DA8D3D" d="M365.116 722.518C380.091 716.193 396.848 711.438 412.388 706.613C411.144 708.875 410.258 709.626 410.857 712.232C414.811 716.845 423.078 717.377 428.817 717.801C447.208 719.163 466.026 716.864 484.361 715.294Q511.832 712.765 539.387 711.437C548.824 710.941 558.707 709.871 568.119 710.591C555.68 720.722 543.645 724.88 530.426 732.772C527.729 733.127 524.345 734.635 522.716 736.918C521.106 739.175 520.885 742.076 521.537 744.708C522.357 748.021 524.153 749.498 526.941 751.137Q528.125 751.836 529.381 752.398C536.302 760.472 553.32 782.632 562.034 786.373C566.915 783.079 567.978 774.655 571.715 770.097C580.6 759.259 615.795 747.637 629.935 745.519C628.495 750.609 626.282 756.097 629.053 761.113C629.523 761.964 630.642 762.439 631.457 762.962C634.907 763.586 638.217 762.484 641.51 761.536C662.175 755.59 664.089 754.622 676.927 773.174C679.588 777.02 684.201 783.705 683.05 788.688C682.637 790.477 681.774 791.722 680.185 792.594C676.704 794.505 670.631 792.8 667.107 791.583C652.264 786.456 653.242 779.307 635.507 787.604C632.667 788.933 630.288 790.214 628.948 793.086C630.798 794.484 633.322 794.043 635.543 793.994C635.093 796.31 634.653 796.851 632.662 798.221C624.235 804.02 614.029 807.161 605.913 813.531C602.832 813.674 600.055 813.562 597.492 815.525C586.1 813.115 574.039 806.978 563.202 802.63L495.44 775.371Q450.529 757.57 405.854 739.181C392.569 733.807 377.608 729.397 365.116 722.518Z"/>
	<path fill="#4C81B5" d="M627.714 652.621C628.788 652.982 629.526 653.195 630.675 653.049C642.36 651.563 653.975 649.256 665.649 647.614C681.137 645.436 696.76 643.955 712.314 642.307Q780.706 635.02 849.48 634.21C871.732 633.729 894.472 632.718 916.678 634.474C915.223 646.669 915.083 657.673 917.471 669.766L917.67 673.951C903.307 677.809 884.175 680.681 871.747 688.838C866.629 692.197 864.235 699.413 860.461 704.145C852.08 714.652 828.516 721.738 815.277 721.915C789.512 716.477 763.692 711.644 737.834 706.68C726.85 704.571 702.027 698.443 692.191 699.374C696.939 700.768 702.392 701.848 706.787 704.095C694.898 708.262 662.009 702.446 646.133 706.449C647.922 703.358 649.815 699.652 649.583 695.987C649.197 689.871 643.911 686.197 639.635 682.57C638.181 679.139 626.667 667.097 623.295 662.107L623.917 659.471C625.538 657.682 626.609 654.785 627.714 652.621Z"/>
	<path fill="#F3CE7C" d="M692.191 699.374C684.964 698.028 677.664 696.952 670.471 695.439C666.207 694.542 661.225 693.537 658.75 689.727C659.392 687.785 660.208 686.498 661.812 685.194C686.374 665.216 823.762 665.016 860.626 665.962C879.536 666.448 898.65 667.861 917.471 669.766L917.67 673.951C903.307 677.809 884.175 680.681 871.747 688.838C866.629 692.197 864.235 699.413 860.461 704.145C852.08 714.652 828.516 721.738 815.277 721.915C789.512 716.477 763.692 711.644 737.834 706.68C726.85 704.571 702.027 698.443 692.191 699.374Z"/>
	<path fill="#4C81B5" d="M248.298 771.55C250.457 773.613 251.745 774.274 252.345 777.251C251.107 780.706 248.357 782.452 245.186 783.962C233.699 789.435 217.485 789.775 207.692 797.857L207.457 799.174C210.96 801.823 214.624 801.708 218.779 801.157C229.297 799.765 240.095 797.142 250.024 793.367C267.057 786.89 319.891 757.718 335.004 770.043C336.405 771.187 338.104 773.701 338.217 775.563C338.616 782.183 329.097 790.321 328.001 797.753C327.256 802.806 327.318 807.722 327.471 812.804L326.945 813.617C316.194 830.036 288.409 838.866 293.335 864.448C294.803 872.074 299.39 878.173 304.489 883.797C305.926 896.867 309.297 918.812 320.073 927.887C321.898 929.424 322.75 929.438 325.009 929.559C326.284 928.779 326.948 928.667 327.275 927.095C329.458 916.614 313.705 900.708 320.248 889.062C322.392 887.639 322.476 887.645 325.04 887.914C326.111 888.573 327.345 889.299 328.086 890.336C330.432 893.617 331.491 898.457 333.467 902.089C338.108 910.623 345.124 917.618 347.453 927.243C350.46 939.671 352.512 945.388 363.903 952.38C375.763 959.66 390.49 964.756 404.474 963.975C411.803 963.566 419.111 962.209 426.446 962.066C435.113 961.897 445.086 963.427 453.486 965.576C468.633 969.449 479.021 981.359 494.601 984.704C502.32 986.361 528.779 982.602 531.341 990.804C532.982 996.056 528.179 1003.9 525.444 1008.09C521.574 1014.02 516.949 1019.1 511.859 1024L0 1024L0 945.993C13.1677 935.385 24.8192 922.492 37.2355 910.973C52.5585 896.758 69.0838 883.563 85.5029 870.627C121.73 842.085 162.323 816.163 202.855 794.179C217.728 786.112 233.538 779.674 248.298 771.55Z"/>
	<path fill="#F3CE7C" d="M1359.41 694.174C1378.82 698.166 1398.02 705.149 1416.89 711.214Q1439.34 718.227 1461.46 726.216Q1483.58 734.205 1505.33 743.155Q1527.07 752.104 1548.41 761.998Q1569.75 771.891 1590.63 782.709C1602.02 788.589 1612.91 795.329 1624.17 801.448C1628.91 804.024 1649.51 813.171 1651.63 816.613C1651.71 816.747 1651.75 816.903 1651.81 817.049L1651.42 817.906C1658.73 818.616 1668.67 826.907 1674.83 830.913C1720.49 860.574 1762.61 894.132 1803 930.558C1807.82 934.91 1814.14 939.63 1818.2 944.654C1818.57 945.112 1818.63 945.296 1818.85 945.772C1820.74 950.232 1821.16 1017.43 1819.45 1021.98C1819.17 1022.71 1818.86 1023.34 1818.44 1024L1482.49 1024L1309.71 1024C1311.01 1022.73 1311.65 1021.08 1311.99 1019.32C1313.24 1012.96 1313.6 1005.99 1309.67 1000.47C1302.96 991.041 1283.88 985.496 1272.94 983.668C1260.01 993.952 1228.55 991.569 1212.22 991.314C1202.56 991.163 1194.21 988.018 1187.52 980.96C1184.02 977.268 1170.7 959.691 1169.4 955.498C1168.38 952.21 1169.3 949.271 1170.63 946.273C1172.55 941.947 1175.41 938.094 1175.68 933.239C1176.08 926.044 1172.19 919.276 1172.42 912.035C1172.9 896.464 1200.69 868.78 1213.37 861.289C1218.56 858.225 1225.61 858.148 1230.34 854.667C1236.05 850.475 1237.57 843.282 1242.6 838.653C1253.29 828.802 1270.18 833.971 1283 830.602C1290.21 828.71 1296.35 823.863 1303.95 823.241C1314.63 822.366 1326.15 824.411 1336.95 824.706C1346.29 831.654 1340.85 840.108 1362.57 850.489C1390.92 864.041 1382.14 844.804 1398.87 845.849C1414.84 846.848 1434.25 857.048 1450.03 851.225C1454.15 849.703 1458.59 846.953 1460.37 842.728C1461.24 840.65 1461.24 838.393 1460.23 836.361C1454.27 824.346 1429.36 827.37 1418.09 823.432C1403.98 818.502 1406.88 809.071 1401.49 797.904L1399.42 798.174C1393.87 801.934 1396.16 810.535 1393.32 815.983C1391.34 819.771 1387.18 825.812 1382.7 826.817C1380.29 827.356 1378.21 826.566 1376.3 825.108C1371.75 821.618 1371.5 815.981 1370.82 810.759L1369.81 809.851C1369.19 811.268 1368.03 812.314 1366.82 813.215C1351.73 824.457 1343.86 797.162 1329.74 795.422C1318.11 793.988 1295.49 798.475 1288.18 807.997C1285 812.149 1283.65 817.876 1279.46 821.157C1279.3 821.282 1279.13 821.396 1278.97 821.515C1273.13 825.998 1264.06 825.513 1257.12 825.09C1251.45 824.745 1242.17 824.626 1238.37 819.726C1231.56 810.966 1244.24 797.901 1244.59 789.324C1244.6 789.186 1244.6 789.048 1244.6 788.91C1253.82 790.27 1262.87 791.475 1272.21 790.238C1275.91 789.747 1282.06 789.122 1284.46 785.845C1284.89 785.246 1284.49 784.074 1284.38 783.344C1279.76 777.019 1268.9 773.2 1261.91 769.863C1273.88 764.936 1304.73 761.161 1311.74 756.049C1314.18 754.649 1315.53 752.062 1317.45 750.053C1325.28 741.863 1332.42 742.327 1342.95 742.131C1338.07 732.616 1324.86 728.946 1316.87 722.18C1314.47 720.154 1313.14 718.512 1312.92 715.366C1318.32 702.468 1347.23 700.698 1358.55 694.65C1358.84 694.496 1359.13 694.333 1359.41 694.174Z"/>
	<path fill="#4C81B5" d="M1423.11 811.998C1425.21 811.64 1427.28 811.402 1429.4 811.85C1431.95 812.393 1434.4 813.416 1435.91 815.618C1435.97 818.193 1435.9 818.108 1434.14 820.002C1433.56 820.21 1433.09 820.378 1432.47 820.419C1430.1 820.575 1427.7 820.234 1425.84 818.655C1423.63 816.779 1423.38 814.683 1423.11 811.998Z"/>
	<path fill="#4C81B5" d="M1369.81 809.851C1360.47 808.475 1351.82 802.717 1346.1 795.069C1345.49 794.247 1345.05 793.334 1344.7 792.373L1345.56 791.119C1354.63 789.765 1364.12 808.655 1385.55 805.738C1382.26 809.758 1376.62 810.231 1371.77 810.68L1370.82 810.759L1369.81 809.851Z"/>
	<path fill="#4C81B5" d="M1570.11 875.809C1568.03 878.649 1561.78 881.943 1558.28 882.443C1550.87 883.501 1543.88 878.995 1538.3 874.682C1533.55 871.014 1525.35 864.318 1524.85 857.89C1524.69 855.89 1525.08 855.613 1526.28 854.18C1532.5 852.182 1539.79 858.462 1545.05 861.036C1557.65 867.196 1598.11 875.893 1611.32 874.665C1615.17 874.307 1621.49 873.374 1624 870.06C1630.99 860.852 1605.26 841.303 1604.62 830.104C1604.48 827.753 1605.31 825.52 1607.04 823.911C1616.66 814.984 1638.98 817.49 1651.42 817.906C1658.73 818.616 1668.67 826.907 1674.83 830.913C1720.49 860.574 1762.61 894.132 1803 930.558C1807.82 934.91 1814.14 939.63 1818.2 944.654C1818.57 945.112 1818.63 945.296 1818.85 945.772C1820.74 950.232 1821.16 1017.43 1819.45 1021.98C1819.17 1022.71 1818.86 1023.34 1818.44 1024L1482.49 1024C1485.49 1019.05 1484.92 1012.38 1488.03 1007.24C1495.51 994.922 1517.99 986.415 1529.45 977.123C1537.71 970.42 1549.66 954.861 1549.89 943.483C1549.92 942.3 1549.58 941.237 1548.72 940.418C1543.53 935.515 1525.58 939.559 1518.72 939.668C1497.19 940.01 1478.96 910.466 1470.75 893.239C1466.37 884.056 1462.66 870.62 1455.39 863.667C1475.97 873.885 1499.24 919.236 1515.35 925.423C1527.16 929.957 1546.25 921.309 1557.16 916.589C1566.08 912.728 1584.38 904.609 1587.72 894.926C1588.6 892.37 1588.32 889.722 1587.08 887.339C1583.93 881.32 1576.22 877.845 1570.11 875.809Z"/>
</svg>
